<svg width="121" height="30" viewBox="0 0 121 30" fill="none" xmlns="http://www.w3.org/2000/svg">
<path d="M110.915 6H112.013V0.963907H113.924V0H109V0.963907H110.915V6Z" fill="#FC3867"/>
<path d="M119.522 0L117.901 4.26752L116.28 0H114.801V6H115.856V1.52017L117.369 5.47771H118.432L119.945 1.52017V6H121V0H119.522Z" fill="#FC3867"/>
<path d="M20.3284 0L20.409 29.3449L15.3869 29.3039L15.1862 27.2145C14.0226 28.9035 12.1718 29.99 9.23948 29.99C4.90035 29.99 -0.516132 25.971 0.0395135 18.4127C0.521639 11.9818 4.90035 9.36904 8.476 8.96729C10.4851 8.72539 13.0965 9.12714 15.1056 11.1769L15.066 0.0424369L20.3284 0ZM10.2433 13.7077C7.51882 13.6681 5.25665 16.1267 5.25665 19.4171C5.25665 22.4713 7.4255 25.1251 10.3988 25.0049C14.1753 24.8436 15.1805 21.6678 15.1805 19.3761C15.1862 16.2002 13.457 13.7487 10.2433 13.7091V13.7077Z" fill="#FC3867"/>
<path d="M32.612 9.28695C30.6425 10.0098 29.6782 10.9746 29.0349 12.5406V9.60808H23.8121V29.2713L29.0349 29.3109V23.2761C29.0349 18.0505 29.2739 16.8835 30.6425 15.3161C31.7919 14.0132 33.5833 13.76 35.0834 14.0429C35.6802 12.4035 36.6218 10.9114 37.8447 9.66749C36.4718 8.88237 34.0485 8.77062 32.612 9.28695Z" fill="#FC3867"/>
<path d="M37.4304 19.3364C37.4304 12.1402 42.6546 8.88379 47.9976 8.88379C53.301 8.88379 58.4842 12.1374 57.8805 20.744L42.8936 20.9038C42.8936 22.4712 44.3795 25.0444 47.6738 25.2453C50.0859 25.4066 51.6128 24.2805 52.4965 22.5929L57.445 24.1193C56.4383 26.5722 53.301 29.707 48.0782 29.707C41.6494 29.707 37.4304 25.0855 37.4304 19.3364ZM52.3381 16.8849C52.3381 14.995 50.329 12.9452 47.1959 13.146C45.307 13.2663 43.1382 14.6738 42.8964 16.9245L52.3381 16.8849Z" fill="#FC3867"/>
<path d="M90.8402 9.52754L84.6122 29.386H78.9072L74.7689 15.9598L70.7182 29.3464H65.0458L58.5774 9.4469H64.2031L68.0997 22.3511L72.2381 9.32666H77.5415L81.7194 22.5124L85.2145 9.52754H90.8402Z" fill="#FC3867"/>
<path d="M98.8652 0.0806885V29.4242H93.2805V0.0806885H98.8652Z" fill="#FC3867"/>
<path d="M105.748 29.7084C107.499 29.7084 108.919 28.2878 108.919 26.5354C108.919 24.783 107.499 23.3624 105.748 23.3624C103.996 23.3624 102.577 24.783 102.577 26.5354C102.577 28.2878 103.996 29.7084 105.748 29.7084Z" fill="#FC3867"/>
</svg>
